<?xml version="1.0" standalone="no"?>
<!DOCTYPE svg PUBLIC "-//W3C//DTD SVG 20010904//EN"
 "http://www.w3.org/TR/2001/REC-SVG-20010904/DTD/svg10.dtd">
<svg version="1.0" xmlns="http://www.w3.org/2000/svg"
 width="839.000000pt" height="839.000000pt" viewBox="0 0 839.000000 839.000000"
 preserveAspectRatio="xMidYMid meet">
<metadata>
Created by potrace 1.14, written by Peter Selinger 2001-2017
</metadata>
<g transform="translate(0.000000,839.000000) scale(0.100000,-0.100000)"
fill="#000000" stroke="none">
<path d="M3959 8386 c-2 -2 -47 -6 -100 -10 -53 -4 -107 -9 -120 -11 -13 -2
-49 -6 -80 -10 -31 -3 -67 -8 -80 -10 -13 -3 -35 -7 -49 -9 -14 -3 -43 -8 -65
-11 -78 -11 -102 -16 -265 -56 -297 -73 -587 -178 -850 -308 -142 -70 -270
-139 -291 -157 -8 -8 -19 -14 -23 -14 -25 0 -480 -323 -541 -384 -7 -6 -38
-33 -70 -61 -32 -27 -113 -104 -179 -170 -105 -104 -161 -164 -266 -285 -12
-14 -57 -70 -100 -125 -286 -370 -498 -763 -654 -1215 -59 -168 -145 -499
-160 -615 -3 -16 -7 -43 -10 -60 -13 -74 -37 -263 -43 -348 -9 -110 -10 -549
-1 -662 12 -145 60 -484 73 -504 1 -3 6 -23 9 -44 21 -133 134 -504 211 -691
371 -911 1032 -1650 1890 -2118 158 -86 292 -147 545 -248 133 -53 433 -138
635 -179 111 -22 151 -29 280 -46 33 -4 68 -9 78 -11 141 -25 794 -25 928 1
12 2 47 7 78 10 31 4 63 8 71 10 8 2 33 7 55 10 23 3 52 8 65 10 14 3 59 12
100 20 107 21 109 21 201 45 200 52 474 145 606 205 29 14 55 25 58 25 12 0
236 113 345 173 267 149 513 325 759 542 43 38 264 258 312 311 48 53 189 224
214 259 11 16 29 40 41 54 95 117 273 408 380 621 69 139 178 388 179 410 0 3
3 10 6 15 28 45 168 545 183 650 3 22 10 65 16 96 41 217 49 338 46 739 -2
217 -5 406 -9 420 -3 14 -8 48 -11 75 -8 63 -13 101 -20 143 -3 17 -8 47 -11
65 -38 219 -150 619 -220 782 -7 17 -31 75 -55 130 -119 282 -247 508 -470
829 -22 32 -72 97 -96 126 -12 14 -56 66 -98 117 -86 103 -305 327 -410 418
-37 33 -73 65 -80 70 -25 24 -196 155 -280 216 -269 194 -631 384 -976 512
-162 60 -448 142 -602 172 -16 3 -40 7 -55 10 -42 8 -133 23 -178 30 -23 3
-50 7 -60 9 -11 2 -54 7 -95 11 -41 4 -88 10 -105 12 -37 5 -581 13 -586 9z"/>
</g>
</svg>
